<svg width="76" height="85" viewBox="0 0 76 85" fill="none" xmlns="http://www.w3.org/2000/svg">
<path fill-rule="evenodd" clip-rule="evenodd" d="M7.71346 30.5502C8.81802 30.5502 9.71346 31.4456 9.71346 32.5502V80.9191H67.1789C68.2835 80.9191 69.1789 81.8146 69.1789 82.9191C69.1789 84.0237 68.2835 84.9191 67.1789 84.9191H7.71346C6.60889 84.9191 5.71346 84.0237 5.71346 82.9191V32.5502C5.71346 31.4456 6.60889 30.5502 7.71346 30.5502Z" fill="#75ACC6"/>
<path fill-rule="evenodd" clip-rule="evenodd" d="M36.286 0.426449C36.9962 -0.104715 37.9714 -0.104715 38.6816 0.426449L74.1654 26.9641C75.05 27.6257 75.2308 28.879 74.5692 29.7636C73.9077 30.6481 72.6543 30.8289 71.7698 30.1674L37.4838 4.52554L3.19782 30.1674C2.31327 30.8289 1.05991 30.6481 0.39837 29.7636C-0.263171 28.879 -0.0823838 27.6257 0.802171 26.9641L36.286 0.426449Z" fill="#75ACC6"/>
<path fill-rule="evenodd" clip-rule="evenodd" d="M26.3122 51.6453C26.3122 50.5407 27.2076 49.6453 28.3122 49.6453H46.6555C47.7601 49.6453 48.6555 50.5407 48.6555 51.6453V82.9191C48.6555 84.0237 47.7601 84.9191 46.6555 84.9191H28.3122C27.2076 84.9191 26.3122 84.0237 26.3122 82.9191V51.6453ZM30.3122 53.6453V80.9191H44.6555V53.6453H30.3122Z" fill="#75ACC6"/>
<path fill-rule="evenodd" clip-rule="evenodd" d="M29.62 25.0324C29.62 23.9278 30.5154 23.0324 31.62 23.0324H43.3477C44.4522 23.0324 45.3477 23.9278 45.3477 25.0324V36.2339C45.3477 37.3384 44.4522 38.2339 43.3477 38.2339H31.62C30.5154 38.2339 29.62 37.3384 29.62 36.2339V25.0324ZM33.62 27.0324V34.2339H41.3477V27.0324H33.62Z" fill="#75ACC6"/>
<path fill-rule="evenodd" clip-rule="evenodd" d="M0.375885 82.9191C0.375885 81.8146 1.27132 80.9191 2.37589 80.9191H73.3435C74.4481 80.9191 75.3435 81.8146 75.3435 82.9191C75.3435 84.0237 74.4481 84.9191 73.3435 84.9191H2.37589C1.27132 84.9191 0.375885 84.0237 0.375885 82.9191Z" fill="#75ACC6"/>
<path fill-rule="evenodd" clip-rule="evenodd" d="M68.8328 57.2382C69.9374 57.2382 70.8328 58.1337 70.8328 59.2382V81.8667C70.8328 82.9712 69.9374 83.8667 68.8328 83.8667C67.7283 83.8667 66.8328 82.9712 66.8328 81.8667V59.2382C66.8328 58.1337 67.7283 57.2382 68.8328 57.2382Z" fill="#75ACC6"/>
<path fill-rule="evenodd" clip-rule="evenodd" d="M68.8329 31.3771C69.9374 31.3771 70.8329 32.2726 70.8329 33.3771V44.2027C70.8329 45.3073 69.9374 46.2027 68.8329 46.2027C67.7283 46.2027 66.8329 45.3073 66.8329 44.2027V33.3771C66.8329 32.2726 67.7283 31.3771 68.8329 31.3771Z" fill="#75ACC6"/>
<path fill-rule="evenodd" clip-rule="evenodd" d="M68.8328 49.7957C69.9374 49.7957 70.8328 50.6911 70.8328 51.7957V52.2473C70.8328 53.3518 69.9374 54.2473 68.8328 54.2473C67.7283 54.2473 66.8328 53.3518 66.8328 52.2473V51.7957C66.8328 50.6911 67.7283 49.7957 68.8328 49.7957Z" fill="#75ACC6"/>
</svg>
