<svg width="96" height="68" viewBox="0 0 96 68" fill="none" xmlns="http://www.w3.org/2000/svg">
<path fill-rule="evenodd" clip-rule="evenodd" d="M7.71509 14.3899C8.81966 14.3899 9.71509 15.2853 9.71509 16.3899V63.7801H85.5022V43.6707C85.5022 42.5661 86.3977 41.6707 87.5022 41.6707C88.6068 41.6707 89.5022 42.5661 89.5022 43.6707V65.7801C89.5022 66.8846 88.6068 67.7801 87.5022 67.7801H7.71509C6.61052 67.7801 5.71509 66.8846 5.71509 65.7801V16.3899C5.71509 15.2853 6.61052 14.3899 7.71509 14.3899Z" fill="#75ACC6"/>
<path fill-rule="evenodd" clip-rule="evenodd" d="M87.5022 14.3149C88.6068 14.3149 89.5022 15.2104 89.5022 16.3149V30.1802C89.5022 31.2847 88.6068 32.1802 87.5022 32.1802C86.3976 32.1802 85.5022 31.2847 85.5022 30.1802V16.3149C85.5022 15.2104 86.3976 14.3149 87.5022 14.3149Z" fill="#75ACC6"/>
<path fill-rule="evenodd" clip-rule="evenodd" d="M47.4625 0.0423514C47.7338 -0.0143916 48.014 -0.0141129 48.2852 0.0431698L93.706 9.6364C94.7867 9.86466 95.4777 10.9258 95.2495 12.0065C95.0212 13.0873 93.9601 13.7783 92.8794 13.5501L47.8699 4.04369L2.40932 13.5509C1.32814 13.777 0.268375 13.0838 0.042267 12.0026C-0.183841 10.9215 0.509332 9.86169 1.59051 9.63559L47.4625 0.0423514Z" fill="#75ACC6"/>
<path fill-rule="evenodd" clip-rule="evenodd" d="M36.6975 34.602C36.6975 33.4974 37.5929 32.602 38.6975 32.602H57.0463C58.1509 32.602 59.0463 33.4974 59.0463 34.602V65.78C59.0463 66.8846 58.1509 67.78 57.0463 67.78H38.6975C37.5929 67.78 36.6975 66.8846 36.6975 65.78V34.602ZM40.6975 36.602V63.78H55.0463V36.602H40.6975Z" fill="#75ACC6"/>
<path fill-rule="evenodd" clip-rule="evenodd" d="M0.225586 65.78C0.225586 64.6755 1.12102 63.78 2.22559 63.78H93.5183C94.6229 63.78 95.5183 64.6755 95.5183 65.78C95.5183 66.8846 94.6229 67.78 93.5183 67.78H2.22559C1.12102 67.78 0.225586 66.8846 0.225586 65.78Z" fill="#75ACC6"/>
<path fill-rule="evenodd" clip-rule="evenodd" d="M87.5024 35.0004C88.607 35.0004 89.5024 35.8958 89.5024 37.0004V37.1508C89.5024 38.2554 88.607 39.1508 87.5024 39.1508C86.3979 39.1508 85.5024 38.2554 85.5024 37.1508V37.0004C85.5024 35.8958 86.3979 35.0004 87.5024 35.0004Z" fill="#75ACC6"/>
<path fill-rule="evenodd" clip-rule="evenodd" d="M40.0063 16.3149C40.0063 15.2104 40.9018 14.3149 42.0063 14.3149H53.7375C54.8421 14.3149 55.7375 15.2104 55.7375 16.3149V23.5848C55.7375 24.6894 54.8421 25.5848 53.7375 25.5848H42.0063C40.9018 25.5848 40.0063 24.6894 40.0063 23.5848V16.3149ZM44.0063 18.3149V21.5848H51.7375V18.3149H44.0063Z" fill="#75ACC6"/>
</svg>
