<svg width="154" height="85" viewBox="0 0 154 85" fill="none" xmlns="http://www.w3.org/2000/svg">
<path fill-rule="evenodd" clip-rule="evenodd" d="M7.71351 30.5221C8.81808 30.5221 9.71351 31.4175 9.71351 32.5221V80.8911H67.179C68.2835 80.8911 69.179 81.7865 69.179 82.8911C69.179 83.9956 68.2835 84.8911 67.179 84.8911H7.71351C6.60894 84.8911 5.71351 83.9956 5.71351 82.8911V32.5221C5.71351 31.4175 6.60894 30.5221 7.71351 30.5221Z" fill="#75ACC6"/>
<path fill-rule="evenodd" clip-rule="evenodd" d="M36.286 0.398373C36.9962 -0.132791 37.9714 -0.132791 38.6816 0.398373L74.1654 26.936C75.05 27.5976 75.2308 28.8509 74.5692 29.7355C73.9077 30.6201 72.6543 30.8008 71.7698 30.1393L37.4838 4.49746L3.19783 30.1393C2.31327 30.8008 1.05992 30.6201 0.398374 29.7355C-0.263168 28.8509 -0.0823799 27.5976 0.802174 26.936L36.286 0.398373Z" fill="#75ACC6"/>
<path fill-rule="evenodd" clip-rule="evenodd" d="M26.3121 51.6172C26.3121 50.5126 27.2075 49.6172 28.3121 49.6172H46.6554C47.76 49.6172 48.6554 50.5126 48.6554 51.6172V82.891C48.6554 83.9956 47.76 84.891 46.6554 84.891H28.3121C27.2075 84.891 26.3121 83.9956 26.3121 82.891V51.6172ZM30.3121 53.6172V80.891H44.6554V53.6172H30.3121Z" fill="#75ACC6"/>
<path fill-rule="evenodd" clip-rule="evenodd" d="M29.6199 25.0043C29.6199 23.8998 30.5154 23.0043 31.6199 23.0043H43.3476C44.4522 23.0043 45.3476 23.8998 45.3476 25.0043V36.2058C45.3476 37.3104 44.4522 38.2058 43.3476 38.2058H31.6199C30.5154 38.2058 29.6199 37.3104 29.6199 36.2058V25.0043ZM33.6199 27.0043V34.2058H41.3476V27.0043H33.6199Z" fill="#75ACC6"/>
<path fill-rule="evenodd" clip-rule="evenodd" d="M0.375945 82.8911C0.375945 81.7865 1.27138 80.8911 2.37595 80.8911H73.3436C74.4481 80.8911 75.3436 81.7865 75.3436 82.8911C75.3436 83.9956 74.4481 84.8911 73.3436 84.8911H2.37595C1.27138 84.8911 0.375945 83.9956 0.375945 82.8911Z" fill="#75ACC6"/>
<path fill-rule="evenodd" clip-rule="evenodd" d="M69.2087 57.2853C70.3133 57.2853 71.2087 58.1807 71.2087 59.2853V81.9137C71.2087 83.0183 70.3133 83.9137 69.2087 83.9137C68.1042 83.9137 67.2087 83.0183 67.2087 81.9137V59.2853C67.2087 58.1807 68.1042 57.2853 69.2087 57.2853Z" fill="#75ACC6"/>
<path fill-rule="evenodd" clip-rule="evenodd" d="M69.2088 31.4994C70.3134 31.4994 71.2088 32.3948 71.2088 33.4994V44.2498C71.2088 45.3543 70.3134 46.2498 69.2088 46.2498C68.1042 46.2498 67.2088 45.3543 67.2088 44.2498V33.4994C67.2088 32.3948 68.1042 31.4994 69.2088 31.4994Z" fill="#75ACC6"/>
<path fill-rule="evenodd" clip-rule="evenodd" d="M69.2087 49.9178C70.3133 49.9178 71.2087 50.8133 71.2087 51.9178V51.9935C71.2087 53.098 70.3133 53.9935 69.2087 53.9935C68.1042 53.9935 67.2087 53.098 67.2087 51.9935V51.9178C67.2087 50.8133 68.1042 49.9178 69.2087 49.9178Z" fill="#75ACC6"/>
<path fill-rule="evenodd" clip-rule="evenodd" d="M94.9946 49.6924C96.0992 49.6924 96.9946 50.5878 96.9946 51.6924V82.8159C96.9946 83.9205 96.0992 84.8159 94.9946 84.8159C93.89 84.8159 92.9946 83.9205 92.9946 82.8159V51.6924C92.9946 50.5878 93.89 49.6924 94.9946 49.6924Z" fill="#75ACC6"/>
<path fill-rule="evenodd" clip-rule="evenodd" d="M151.679 49.6924C152.783 49.6924 153.679 50.5878 153.679 51.6924V82.8159C153.679 83.9205 152.783 84.8159 151.679 84.8159C150.574 84.8159 149.679 83.9205 149.679 82.8159V51.6924C149.679 50.5878 150.574 49.6924 151.679 49.6924Z" fill="#75ACC6"/>
<path fill-rule="evenodd" clip-rule="evenodd" d="M122.623 32.9843C123.082 32.8087 123.591 32.8087 124.05 32.9843L152.392 43.8098C153.424 44.204 153.941 45.3599 153.547 46.3918C153.153 47.4237 151.997 47.9406 150.965 47.5465L123.337 36.9935L95.7082 47.5465C94.6764 47.9406 93.5204 47.4237 93.1263 46.3918C92.7321 45.3599 93.2491 44.204 94.281 43.8098L122.623 32.9843Z" fill="#75ACC6"/>
<path fill-rule="evenodd" clip-rule="evenodd" d="M100.588 51.542C100.588 50.4374 101.483 49.542 102.588 49.542H144.086C145.19 49.542 146.086 50.4374 146.086 51.542V82.8158C146.086 83.9204 145.19 84.8159 144.086 84.8159H102.588C101.483 84.8159 100.588 83.9204 100.588 82.8158V51.542ZM104.588 53.542V80.8159H142.086V53.542H104.588Z" fill="#75ACC6"/>
</svg>
