<svg width="251" height="150" viewBox="0 0 251 150" fill="none" xmlns="http://www.w3.org/2000/svg">
<g opacity="0.5">
<path fill-rule="evenodd" clip-rule="evenodd" d="M66.7135 95.2739C67.818 95.2739 68.7135 96.1693 68.7135 97.2739V144.891H124.179V97.2739C124.179 96.1693 125.074 95.2739 126.179 95.2739C127.283 95.2739 128.179 96.1693 128.179 97.2739V146.891C128.179 147.996 127.283 148.891 126.179 148.891H66.7135C65.6089 148.891 64.7135 147.996 64.7135 146.891V97.2739C64.7135 96.1693 65.6089 95.2739 66.7135 95.2739Z" fill="#75ACC6"/>
<path fill-rule="evenodd" clip-rule="evenodd" d="M95.286 64.3984C95.9964 63.8671 96.9718 63.8672 97.6821 64.3987L130.835 89.2073C131.72 89.8691 131.9 91.1225 131.238 92.0068C130.577 92.8912 129.323 93.0717 128.439 92.4099L96.4835 68.4977L62.1978 94.1393C61.3133 94.8008 60.0599 94.6201 59.3984 93.7355C58.7368 92.8509 58.9176 91.5976 59.8022 90.936L95.286 64.3984Z" fill="#75ACC6"/>
<path fill-rule="evenodd" clip-rule="evenodd" d="M85.3121 115.617C85.3121 114.513 86.2076 113.617 87.3121 113.617H105.655C106.76 113.617 107.655 114.513 107.655 115.617V146.891C107.655 147.996 106.76 148.891 105.655 148.891H87.3121C86.2076 148.891 85.3121 147.996 85.3121 146.891V115.617ZM89.3121 117.617V144.891H103.655V117.617H89.3121Z" fill="#75ACC6"/>
<path fill-rule="evenodd" clip-rule="evenodd" d="M88.62 89.0043C88.62 87.8998 89.5154 87.0043 90.62 87.0043H102.348C103.452 87.0043 104.348 87.8998 104.348 89.0043V100.206C104.348 101.31 103.452 102.206 102.348 102.206H90.62C89.5154 102.206 88.62 101.31 88.62 100.206V89.0043ZM92.62 91.0043V98.2058H100.348V91.0043H92.62Z" fill="#75ACC6"/>
<path fill-rule="evenodd" clip-rule="evenodd" d="M59.3759 146.891C59.3759 145.786 60.2713 144.891 61.3759 144.891H126.179C127.283 144.891 128.179 145.786 128.179 146.891C128.179 147.996 127.283 148.891 126.179 148.891H61.3759C60.2713 148.891 59.3759 147.996 59.3759 146.891Z" fill="#75ACC6"/>
<path fill-rule="evenodd" clip-rule="evenodd" d="M127.637 90.8086C127.637 89.704 128.533 88.8086 129.637 88.8086H175.27C176.374 88.8086 177.27 89.704 177.27 90.8086C177.27 91.9132 176.374 92.8086 175.27 92.8086H129.637C128.533 92.8086 127.637 91.9132 127.637 90.8086Z" fill="#75ACC6"/>
<path fill-rule="evenodd" clip-rule="evenodd" d="M131.772 114.64C131.772 113.535 132.667 112.64 133.772 112.64H175.27C176.374 112.64 177.27 113.535 177.27 114.64V146.891C177.27 147.996 176.374 148.891 175.27 148.891H133.772C132.667 148.891 131.772 147.996 131.772 146.891V114.64ZM135.772 116.64V144.891H173.27V116.64H135.772Z" fill="#75ACC6"/>
<path fill-rule="evenodd" clip-rule="evenodd" d="M131.772 107.573C131.772 106.469 132.667 105.573 133.772 105.573H189.403C190.508 105.573 191.403 106.469 191.403 107.573C191.403 108.678 190.508 109.573 189.403 109.573H133.772C132.667 109.573 131.772 108.678 131.772 107.573Z" fill="#75ACC6"/>
<path fill-rule="evenodd" clip-rule="evenodd" d="M173.953 89.303C174.785 88.5759 176.048 88.6605 176.775 89.492L191.435 106.257C192.162 107.088 192.078 108.352 191.246 109.079C190.415 109.806 189.151 109.721 188.424 108.89L173.764 92.1251C173.037 91.2936 173.122 90.0301 173.953 89.303Z" fill="#75ACC6"/>
<path fill-rule="evenodd" clip-rule="evenodd" d="M182.562 135.419C183.667 135.419 184.562 136.314 184.562 137.419V147.267C184.562 148.372 183.667 149.267 182.562 149.267C181.458 149.267 180.562 148.372 180.562 147.267V137.419C180.562 136.314 181.458 135.419 182.562 135.419Z" fill="#75ACC6"/>
<path fill-rule="evenodd" clip-rule="evenodd" d="M182.562 112.64C183.667 112.64 184.562 113.535 184.562 114.64V123.135C184.562 124.24 183.667 125.135 182.562 125.135C181.458 125.135 180.562 124.24 180.562 123.135V114.64C180.562 113.535 181.458 112.64 182.562 112.64Z" fill="#75ACC6"/>
<path fill-rule="evenodd" clip-rule="evenodd" d="M182.562 127.976C183.667 127.976 184.562 128.872 184.562 129.976V130.203C184.562 131.307 183.667 132.203 182.562 132.203C181.458 132.203 180.562 131.307 180.562 130.203V129.976C180.562 128.872 181.458 127.976 182.562 127.976Z" fill="#75ACC6"/>
</g>
</svg>
