<svg width="106" height="119" viewBox="0 0 106 119" fill="none" xmlns="http://www.w3.org/2000/svg">
<path fill-rule="evenodd" clip-rule="evenodd" d="M14.3152 43.1906C14.3152 42.086 15.2106 41.1906 16.3152 41.1906H89.6156C90.7202 41.1906 91.6156 42.086 91.6156 43.1906C91.6156 44.2951 90.7202 45.1906 89.6156 45.1906H16.3152C15.2106 45.1906 14.3152 44.2951 14.3152 43.1906Z" fill="#BAD5E2"/>
<path fill-rule="evenodd" clip-rule="evenodd" d="M7.69629 27.1109C8.80086 27.1109 9.69629 28.0063 9.69629 29.1109V114.66H95.7104V94.5665C95.7104 93.4619 96.6059 92.5665 97.7104 92.5665C98.815 92.5665 99.7104 93.4619 99.7104 94.5665V116.66C99.7104 117.764 98.815 118.66 97.7104 118.66H7.69629C6.59172 118.66 5.69629 117.764 5.69629 116.66V29.1109C5.69629 28.0063 6.59172 27.1109 7.69629 27.1109Z" fill="#BAD5E2"/>
<path fill-rule="evenodd" clip-rule="evenodd" d="M97.7104 27.036C98.815 27.036 99.7104 27.9314 99.7104 29.036V81.0859C99.7104 82.1905 98.815 83.0859 97.7104 83.0859C96.6059 83.0859 95.7104 82.1905 95.7104 81.0859V29.036C95.7104 27.9314 96.6059 27.036 97.7104 27.036Z" fill="#BAD5E2"/>
<path fill-rule="evenodd" clip-rule="evenodd" d="M52.2092 0.14853C52.696 -0.0503249 53.2415 -0.0494761 53.7277 0.150893L104.244 20.9708C105.265 21.3917 105.751 22.5608 105.331 23.5821C104.91 24.6033 103.741 25.09 102.719 24.6691L52.9622 4.16182L2.75638 24.6714C1.73385 25.0891 0.566286 24.5988 0.148569 23.5763C-0.269149 22.5538 0.221155 21.3862 1.24369 20.9685L52.2092 0.14853Z" fill="#BAD5E2"/>
<path fill-rule="evenodd" clip-rule="evenodd" d="M41.822 85.5045C41.822 84.3999 42.7175 83.5045 43.822 83.5045H62.1097C63.2142 83.5045 64.1097 84.3999 64.1097 85.5045V116.66C64.1097 117.764 63.2142 118.66 62.1097 118.66H43.822C42.7175 118.66 41.822 117.764 41.822 116.66V85.5045ZM45.822 87.5045V114.66H60.1097V87.5045H45.822Z" fill="#BAD5E2"/>
<path fill-rule="evenodd" clip-rule="evenodd" d="M0.225098 116.66C0.225098 115.555 1.12053 114.66 2.2251 114.66H103.706C104.811 114.66 105.706 115.555 105.706 116.66C105.706 117.764 104.811 118.66 103.706 118.66H2.2251C1.12053 118.66 0.225098 117.764 0.225098 116.66Z" fill="#BAD5E2"/>
<path fill-rule="evenodd" clip-rule="evenodd" d="M97.7104 85.9011C98.815 85.9011 99.7104 86.7965 99.7104 87.9011V87.9767C99.7104 89.0813 98.815 89.9767 97.7104 89.9767C96.6059 89.9767 95.7104 89.0813 95.7104 87.9767V87.9011C95.7104 86.7965 96.6059 85.9011 97.7104 85.9011Z" fill="#BAD5E2"/>
<path fill-rule="evenodd" clip-rule="evenodd" d="M13.8655 72.5482C13.8655 71.4436 14.7609 70.5482 15.8655 70.5482H89.1659C90.2705 70.5482 91.1659 71.4436 91.1659 72.5482C91.1659 73.6528 90.2705 74.5482 89.1659 74.5482H15.8655C14.7609 74.5482 13.8655 73.6528 13.8655 72.5482Z" fill="#BAD5E2"/>
<path fill-rule="evenodd" clip-rule="evenodd" d="M44.9695 20.6481C44.9695 19.5435 45.8649 18.6481 46.9695 18.6481H58.6616C59.7661 18.6481 60.6616 19.5435 60.6616 20.6481V27.9126C60.6616 29.0172 59.7661 29.9126 58.6616 29.9126H46.9695C45.8649 29.9126 44.9695 29.0172 44.9695 27.9126V20.6481ZM48.9695 22.6481V25.9126H56.6616V22.6481H48.9695Z" fill="#BAD5E2"/>
<path fill-rule="evenodd" clip-rule="evenodd" d="M44.9695 53.9001C44.9695 52.7956 45.8649 51.9001 46.9695 51.9001H58.6616C59.7661 51.9001 60.6616 52.7956 60.6616 53.9001V61.1647C60.6616 62.2692 59.7661 63.1647 58.6616 63.1647H46.9695C45.8649 63.1647 44.9695 62.2692 44.9695 61.1647V53.9001ZM48.9695 55.9001V59.1647H56.6616V55.9001H48.9695Z" fill="#BAD5E2"/>
</svg>
