<svg width="251" height="149" viewBox="0 0 251 149" fill="none" xmlns="http://www.w3.org/2000/svg">
<g opacity="0.5">
<path fill-rule="evenodd" clip-rule="evenodd" d="M73.4264 75.2742C74.531 75.2742 75.4264 76.1696 75.4264 77.2742V144.597L176.379 144.247C177.483 144.243 178.382 145.135 178.386 146.24C178.39 147.345 177.497 148.243 176.393 148.247L73.4333 148.604C72.9017 148.606 72.3912 148.396 72.0146 148.021C71.6381 147.645 71.4264 147.136 71.4264 146.604V77.2742C71.4264 76.1696 72.3218 75.2742 73.4264 75.2742Z" fill="#75ACC6"/>
<path fill-rule="evenodd" clip-rule="evenodd" d="M124.963 45.1669C125.473 44.9442 126.053 44.9444 126.564 45.1673L184.255 70.3716C185.267 70.8138 185.729 71.9928 185.287 73.005C184.845 74.0172 183.666 74.4793 182.654 74.0371L125.762 49.1823L68.7999 74.0374C67.7875 74.4792 66.6087 74.0166 66.1669 73.0042C65.7252 71.9918 66.1878 70.813 67.2002 70.3713L124.963 45.1669Z" fill="#75ACC6"/>
<path fill-rule="evenodd" clip-rule="evenodd" d="M118.765 69.8485C118.765 68.7439 119.66 67.8485 120.765 67.8485H131.689C132.794 67.8485 133.689 68.7439 133.689 69.8485V80.4872C133.689 81.5917 132.794 82.4872 131.689 82.4872H120.765C119.66 82.4872 118.765 81.5917 118.765 80.4872V69.8485ZM122.765 71.8485V78.4872H129.689V71.8485H122.765Z" fill="#75ACC6"/>
<path d="M96.346 146.247H178.885" stroke="#75ACC6" stroke-width="4" stroke-miterlimit="10" stroke-linecap="round" stroke-linejoin="round"/>
<path fill-rule="evenodd" clip-rule="evenodd" d="M178.885 121.827C179.989 121.827 180.885 122.723 180.885 123.827V145.319C180.885 146.423 179.989 147.319 178.885 147.319C177.78 147.319 176.885 146.423 176.885 145.319V123.827C176.885 122.723 177.78 121.827 178.885 121.827Z" fill="#75ACC6"/>
<path fill-rule="evenodd" clip-rule="evenodd" d="M178.885 75.9168C179.989 75.9168 180.885 76.8122 180.885 77.9168V109.547C180.885 110.652 179.989 111.547 178.885 111.547C177.78 111.547 176.885 110.652 176.885 109.547V77.9168C176.885 76.8122 177.78 75.9168 178.885 75.9168Z" fill="#75ACC6"/>
<path fill-rule="evenodd" clip-rule="evenodd" d="M178.885 114.83C179.989 114.83 180.885 115.726 180.885 116.83V116.902C180.885 118.007 179.989 118.902 178.885 118.902C177.78 118.902 176.885 118.007 176.885 116.902V116.83C176.885 115.726 177.78 114.83 178.885 114.83Z" fill="#75ACC6"/>
<path fill-rule="evenodd" clip-rule="evenodd" d="M111 111C111 109.895 111.895 109 113 109H167C168.105 109 169 109.895 169 111V146C169 147.105 168.105 148 167 148H113C111.895 148 111 147.105 111 146V111ZM115 113V144H165V113H115Z" fill="#75ACC6"/>
<path fill-rule="evenodd" clip-rule="evenodd" d="M79.365 95.53C79.365 94.4255 80.2604 93.53 81.365 93.53H169.475C170.58 93.53 171.475 94.4255 171.475 95.53C171.475 96.6346 170.58 97.53 169.475 97.53H81.365C80.2604 97.53 79.365 96.6346 79.365 95.53Z" fill="#75ACC6"/>
<path fill-rule="evenodd" clip-rule="evenodd" d="M81 111C81 109.895 81.8954 109 83 109H102C103.105 109 104 109.895 104 111V146C104 147.105 103.105 148 102 148H83C81.8954 148 81 147.105 81 146V111ZM85 113V144H100V113H85Z" fill="#75ACC6"/>
</g>
</svg>
