<svg width="926" height="73" viewBox="0 0 926 73" fill="none" xmlns="http://www.w3.org/2000/svg">
<path d="M62.8611 17.3532C61.8893 11.1846 56.4968 6.45 50.0078 6.45C47.5667 6.45 45.2209 7.1198 43.1864 8.36909C40.0911 3.21024 34.5187 0 28.3281 0C18.7649 0 10.9844 7.71606 10.9844 17.2C10.9844 17.2588 10.9844 17.3197 10.9865 17.3784C4.84035 18.4051 0 23.7192 0 30.1C0 37.2135 5.9794 43 13.1523 43H60.8477C68.0206 43 74 37.2135 74 30.1C74 23.6648 69.0813 18.317 62.8611 17.3532Z" fill="#F0F7FA"/>
<path d="M911.55 39.5995C910.289 31.566 903.293 25.4 894.875 25.4C891.708 25.4 888.665 26.2723 886.026 27.8993C882.01 21.1808 874.781 17 866.75 17C854.344 17 844.25 27.0488 844.25 39.4C844.25 39.4765 844.25 39.5559 844.253 39.6324C836.279 40.9695 830 47.8902 830 56.2C830 65.4641 837.757 73 847.062 73H908.938C918.243 73 926 65.4641 926 56.2C926 47.8192 919.619 40.8547 911.55 39.5995Z" fill="#F0F7FA"/>
<path d="M267.775 54.2998C267.144 50.283 263.647 47.2 259.438 47.2C257.854 47.2 256.333 47.6361 255.013 48.4496C253.005 45.0904 249.39 43 245.375 43C239.172 43 234.125 48.0244 234.125 54.2C234.125 54.2383 234.125 54.2779 234.126 54.3162C230.14 54.9847 227 58.4451 227 62.6C227 67.232 230.879 71 235.531 71H266.469C271.121 71 275 67.232 275 62.6C275 58.4096 271.81 54.9273 267.775 54.2998Z" fill="#F0F7FA"/>
</svg>
