<svg width="132" height="94" viewBox="0 0 132 94" fill="none" xmlns="http://www.w3.org/2000/svg">
<path fill-rule="evenodd" clip-rule="evenodd" d="M33.2429 43.8405C34.3475 43.8405 35.2429 44.7359 35.2429 45.8405V84.3059C35.2429 85.4104 34.3475 86.3059 33.2429 86.3059C32.1384 86.3059 31.2429 85.4104 31.2429 84.3059V45.8405C31.2429 44.7359 32.1384 43.8405 33.2429 43.8405Z" fill="#BAD5E2"/>
<path fill-rule="evenodd" clip-rule="evenodd" d="M31.2429 91.5288C31.2429 90.4242 32.1384 89.5288 33.2429 89.5288H99.6756C100.78 89.5288 101.676 90.4242 101.676 91.5288C101.676 92.6334 100.78 93.5288 99.6756 93.5288H33.2429C32.1384 93.5288 31.2429 92.6334 31.2429 91.5288Z" fill="#BAD5E2"/>
<path fill-rule="evenodd" clip-rule="evenodd" d="M99.675 43.8405C100.78 43.8405 101.675 44.7359 101.675 45.8405V84.3059C101.675 85.4104 100.78 86.3059 99.675 86.3059C98.5705 86.3059 97.675 85.4104 97.675 84.3059V45.8405C97.675 44.7359 98.5705 43.8405 99.675 43.8405Z" fill="#BAD5E2"/>
<path fill-rule="evenodd" clip-rule="evenodd" d="M65.3253 0.382083C66.0269 -0.127798 66.9772 -0.127319 67.6784 0.38327L107.236 29.1903C108.128 29.8406 108.325 31.0915 107.675 31.9844C107.025 32.8773 105.774 33.074 104.881 32.4238L66.4997 4.47322L28.0355 32.425C27.1419 33.0743 25.8912 32.8764 25.2418 31.9828C24.5925 31.0892 24.7905 29.8385 25.684 29.1891L65.3253 0.382083Z" fill="#BAD5E2"/>
<path fill-rule="evenodd" clip-rule="evenodd" d="M54.2549 56.5907C54.2549 55.4861 55.1503 54.5907 56.2549 54.5907H76.7474C77.8519 54.5907 78.7474 55.4861 78.7474 56.5907V91.5287C78.7474 92.6333 77.8519 93.5287 76.7474 93.5287H56.2549C55.1503 93.5287 54.2549 92.6333 54.2549 91.5287V56.5907ZM58.2549 58.5907V89.5287H74.7474V58.5907H58.2549Z" fill="#BAD5E2"/>
<path fill-rule="evenodd" clip-rule="evenodd" d="M57.9502 26.7758C57.9502 25.6712 58.8456 24.7758 59.9502 24.7758H73.052C74.1565 24.7758 75.052 25.6712 75.052 26.7758V39.2896C75.052 40.3942 74.1565 41.2896 73.052 41.2896H59.9502C58.8456 41.2896 57.9502 40.3942 57.9502 39.2896V26.7758ZM61.9502 28.7758V37.2896H71.052V28.7758H61.9502Z" fill="#BAD5E2"/>
<path fill-rule="evenodd" clip-rule="evenodd" d="M97.675 91.5288C97.675 90.4242 98.5705 89.5288 99.675 89.5288H129.826C130.93 89.5288 131.826 90.4242 131.826 91.5288C131.826 92.6334 130.93 93.5288 129.826 93.5288H99.675C98.5705 93.5288 97.675 92.6334 97.675 91.5288Z" fill="#BAD5E2"/>
<path fill-rule="evenodd" clip-rule="evenodd" d="M0 91.5288C0 90.4242 0.89543 89.5288 2 89.5288H33.2427C34.3472 89.5288 35.2427 90.4242 35.2427 91.5288C35.2427 92.6334 34.3472 93.5288 33.2427 93.5288H2C0.89543 93.5288 0 92.6334 0 91.5288Z" fill="#BAD5E2"/>
<path fill-rule="evenodd" clip-rule="evenodd" d="M13.32 12.45C13.6177 11.6787 14.3592 11.1701 15.1859 11.1701H51.1317C52.2363 11.1701 53.1317 12.0655 53.1317 13.1701C53.1317 14.2747 52.2363 15.1701 51.1317 15.1701H16.5577L7.81328 37.8262C7.41556 38.8566 6.25777 39.3696 5.22729 38.9719C4.19681 38.5741 3.68386 37.4163 4.08159 36.3859L13.32 12.45Z" fill="#BAD5E2"/>
<path fill-rule="evenodd" clip-rule="evenodd" d="M80.5422 13.1701C80.5422 12.0655 81.4377 11.1701 82.5422 11.1701H118.656C119.456 11.1701 120.179 11.6469 120.494 12.3823L130.573 35.8982C131.008 36.9135 130.537 38.0893 129.522 38.5244C128.507 38.9595 127.331 38.4892 126.896 37.4739L117.337 15.1701H82.5422C81.4377 15.1701 80.5422 14.2747 80.5422 13.1701Z" fill="#BAD5E2"/>
<path fill-rule="evenodd" clip-rule="evenodd" d="M5.94751 43.8405C7.05208 43.8405 7.94751 44.7359 7.94751 45.8405V89.8489C7.94751 90.9535 7.05208 91.8489 5.94751 91.8489C4.84294 91.8489 3.94751 90.9535 3.94751 89.8489V45.8405C3.94751 44.7359 4.84294 43.8405 5.94751 43.8405Z" fill="#BAD5E2"/>
<path fill-rule="evenodd" clip-rule="evenodd" d="M128.734 43.8405C129.839 43.8405 130.734 44.7359 130.734 45.8405V91.3607C130.734 92.4653 129.839 93.3607 128.734 93.3607C127.63 93.3607 126.734 92.4653 126.734 91.3607V45.8405C126.734 44.7359 127.63 43.8405 128.734 43.8405Z" fill="#BAD5E2"/>
</svg>
