<svg width="110" height="90" viewBox="0 0 110 90" fill="none" xmlns="http://www.w3.org/2000/svg">
<path fill-rule="evenodd" clip-rule="evenodd" d="M8.23975 32.8293C9.34432 32.8293 10.2397 33.7247 10.2397 34.8293V87.5332C10.2397 88.6378 9.34432 89.5332 8.23975 89.5332C7.13518 89.5332 6.23975 88.6378 6.23975 87.5332V34.8293C6.23975 33.7247 7.13518 32.8293 8.23975 32.8293Z" fill="#BAD5E2"/>
<path fill-rule="evenodd" clip-rule="evenodd" d="M38.9258 0.372354C39.6222 -0.124913 40.5578 -0.124043 41.2533 0.37452L78.855 27.33C79.7527 27.9735 79.9588 29.223 79.3152 30.1207C78.6717 31.0184 77.4222 31.2245 76.5245 30.5809L40.0857 4.45917L3.16226 30.8245C2.26333 31.4663 1.01427 31.258 0.372387 30.359C-0.269492 29.4601 -0.061116 28.2111 0.837808 27.5692L38.9258 0.372354Z" fill="#BAD5E2"/>
<path fill-rule="evenodd" clip-rule="evenodd" d="M27.5529 53.9797C27.5529 52.8751 28.4483 51.9797 29.5529 51.9797H49.3262C50.4308 51.9797 51.3262 52.8751 51.3262 53.9797V87.4527C51.3262 88.5573 50.4308 89.4527 49.3262 89.4527H29.5529C28.4483 89.4527 27.5529 88.5573 27.5529 87.4527V53.9797ZM31.5529 55.9797V85.4527H47.3262V55.9797H31.5529Z" fill="#BAD5E2"/>
<path fill-rule="evenodd" clip-rule="evenodd" d="M31.1187 31.1279C31.1187 30.0234 32.0141 29.1279 33.1187 29.1279H45.7606C46.8652 29.1279 47.7606 30.0234 47.7606 31.1279V43.1171C47.7606 44.2216 46.8652 45.1171 45.7606 45.1171H33.1187C32.0141 45.1171 31.1187 44.2216 31.1187 43.1171V31.1279ZM35.1187 33.1279V41.1171H43.7606V33.1279H35.1187Z" fill="#BAD5E2"/>
<path fill-rule="evenodd" clip-rule="evenodd" d="M0 87.5332C0 86.4286 0.89543 85.5332 2 85.5332H107.512C108.616 85.5332 109.512 86.4286 109.512 87.5332C109.512 88.6378 108.616 89.5332 107.512 89.5332H2C0.89543 89.5332 0 88.6378 0 87.5332Z" fill="#BAD5E2"/>
<path fill-rule="evenodd" clip-rule="evenodd" d="M53.2421 12.8626C53.2421 11.758 54.1375 10.8626 55.2421 10.8626H82.3899C82.7769 10.8626 83.1556 10.9749 83.4801 11.1859L108.602 27.5201C109.528 28.1222 109.791 29.361 109.188 30.287C108.586 31.213 107.348 31.4756 106.422 30.8735L81.7968 14.8626H55.2421C54.1375 14.8626 53.2421 13.9672 53.2421 12.8626Z" fill="#BAD5E2"/>
<path fill-rule="evenodd" clip-rule="evenodd" d="M101.596 60.8307C102.7 60.8307 103.596 61.7261 103.596 62.8307V87.0503C103.596 88.1549 102.7 89.0503 101.596 89.0503C100.491 89.0503 99.5957 88.1549 99.5957 87.0503V62.8307C99.5957 61.7261 100.491 60.8307 101.596 60.8307Z" fill="#BAD5E2"/>
<path fill-rule="evenodd" clip-rule="evenodd" d="M72.017 51.8992C73.1215 51.8992 74.017 52.7947 74.017 53.8992V67.2562C74.017 68.3608 73.1215 69.2562 72.017 69.2562C70.9124 69.2562 70.017 68.3608 70.017 67.2562V53.8992C70.017 52.7947 70.9124 51.8992 72.017 51.8992Z" fill="#BAD5E2"/>
<path fill-rule="evenodd" clip-rule="evenodd" d="M101.596 32.5074C102.7 32.5074 103.596 33.4028 103.596 34.5074V46.7379C103.596 47.8425 102.7 48.7379 101.596 48.7379C100.491 48.7379 99.5957 47.8425 99.5957 46.7379V34.5074C99.5957 33.4028 100.491 32.5074 101.596 32.5074Z" fill="#BAD5E2"/>
<path fill-rule="evenodd" clip-rule="evenodd" d="M101.596 52.8647C102.7 52.8647 103.596 53.7602 103.596 54.8647V55.1061C103.596 56.2107 102.7 57.1061 101.596 57.1061C100.491 57.1061 99.5957 56.2107 99.5957 55.1061V54.8647C99.5957 53.7602 100.491 52.8647 101.596 52.8647Z" fill="#BAD5E2"/>
</svg>
