<svg width="81" height="74" viewBox="0 0 81 74" fill="none" xmlns="http://www.w3.org/2000/svg">
<path fill-rule="evenodd" clip-rule="evenodd" d="M8.11902 16.8736C9.22359 16.8736 10.119 17.769 10.119 18.8736V69.3425H71.8042C72.9087 69.3425 73.8042 70.2379 73.8042 71.3425C73.8042 72.4471 72.9087 73.3425 71.8042 73.3425H8.11902C7.01445 73.3425 6.11902 72.4471 6.11902 71.3425V18.8736C6.11902 17.769 7.01445 16.8736 8.11902 16.8736Z" fill="#BAD5E2"/>
<path fill-rule="evenodd" clip-rule="evenodd" d="M39.4341 0.0822566C39.8046 -0.0274189 40.199 -0.0274189 40.5695 0.0822566L78.5712 11.3313C79.6304 11.6449 80.2348 12.7576 79.9213 13.8168C79.6078 14.8759 78.495 15.4803 77.4359 15.1668L40.0018 4.08578L2.56772 15.1668C1.50857 15.4803 0.395813 14.8759 0.082292 13.8168C-0.231229 12.7576 0.373215 11.6449 1.43236 11.3313L39.4341 0.0822566Z" fill="#BAD5E2"/>
<path fill-rule="evenodd" clip-rule="evenodd" d="M28.1794 37.9167C28.1794 36.8121 29.0749 35.9167 30.1794 35.9167H49.8244C50.929 35.9167 51.8244 36.8121 51.8244 37.9167V71.3425C51.8244 72.4471 50.929 73.3425 49.8244 73.3425H30.1794C29.0749 73.3425 28.1794 72.4471 28.1794 71.3425V37.9167ZM32.1794 39.9167V69.3425H47.8244V39.9167H32.1794Z" fill="#BAD5E2"/>
<path fill-rule="evenodd" clip-rule="evenodd" d="M31.7219 15.0972C31.7219 13.9926 32.6174 13.0972 33.7219 13.0972H46.2818C47.3864 13.0972 48.2818 13.9926 48.2818 15.0972V27.0694C48.2818 28.174 47.3864 29.0694 46.2818 29.0694H33.7219C32.6174 29.0694 31.7219 28.174 31.7219 27.0694V15.0972ZM35.7219 17.0972V25.0694H44.2818V17.0972H35.7219Z" fill="#BAD5E2"/>
<path fill-rule="evenodd" clip-rule="evenodd" d="M0 71.3425C0 70.238 0.89543 69.3425 2 69.3425H78.0035C79.1081 69.3425 80.0035 70.238 80.0035 71.3425C80.0035 72.4471 79.1081 73.3425 78.0035 73.3425H2C0.89543 73.3425 0 72.4471 0 71.3425Z" fill="#BAD5E2"/>
<path fill-rule="evenodd" clip-rule="evenodd" d="M73.5754 44.9963C74.68 44.9963 75.5754 45.8918 75.5754 46.9963V71.1818C75.5754 72.2864 74.68 73.1818 73.5754 73.1818C72.4709 73.1818 71.5754 72.2864 71.5754 71.1818V46.9963C71.5754 45.8918 72.4709 44.9963 73.5754 44.9963Z" fill="#BAD5E2"/>
<path fill-rule="evenodd" clip-rule="evenodd" d="M73.5758 16.713C74.6804 16.713 75.5758 17.6084 75.5758 18.713V30.9262C75.5758 32.0308 74.6804 32.9262 73.5758 32.9262C72.4712 32.9262 71.5758 32.0308 71.5758 30.9262V18.713C71.5758 17.6084 72.4712 16.713 73.5758 16.713Z" fill="#BAD5E2"/>
<path fill-rule="evenodd" clip-rule="evenodd" d="M73.5754 37.0416C74.68 37.0416 75.5754 37.9371 75.5754 39.0416V39.1227C75.5754 40.2273 74.68 41.1227 73.5754 41.1227C72.4709 41.1227 71.5754 40.2273 71.5754 39.1227V39.0416C71.5754 37.9371 72.4709 37.0416 73.5754 37.0416Z" fill="#BAD5E2"/>
</svg>
